<svg width="19" height="19" viewBox="0 0 19 19" fill="none" xmlns="http://www.w3.org/2000/svg">
<path fill-rule="evenodd" clip-rule="evenodd" d="M12.5919 14.2688C10.987 15.4512 8.99459 15.9835 7.01385 15.759C5.03312 15.5344 3.21035 14.5697 1.91073 13.0581C0.611113 11.5464 -0.0693747 9.5995 0.00559688 7.60733C0.0805684 5.61516 0.905462 3.72489 2.31502 2.31521C3.72458 0.905538 5.61469 0.0805752 7.6067 0.00559735C9.5987 -0.0693805 11.5455 0.611164 13.057 1.91089C14.5685 3.21062 15.5332 5.03354 15.7576 7.01444C15.9821 8.99534 15.4499 10.9879 14.2676 12.593L18.6227 16.9468C18.7391 17.0554 18.8326 17.1863 18.8974 17.3317C18.9622 17.4772 18.997 17.6342 18.9998 17.7934C19.0026 17.9526 18.9733 18.1107 18.9137 18.2584C18.8541 18.406 18.7653 18.5401 18.6527 18.6527C18.5402 18.7653 18.4061 18.8541 18.2584 18.9137C18.1108 18.9733 17.9527 19.0026 17.7935 18.9998C17.6343 18.997 17.4773 18.9622 17.3319 18.8974C17.1864 18.8326 17.0556 18.7391 16.947 18.6226L12.5919 14.2688ZM13.4377 7.90396C13.4377 9.37147 12.8547 10.7789 11.8171 11.8165C10.7795 12.8542 9.37227 13.4372 7.90488 13.4372C6.4375 13.4372 5.03022 12.8542 3.99262 11.8165C2.95503 10.7789 2.37211 9.37147 2.37211 7.90396C2.37211 6.43646 2.95503 5.02906 3.99262 3.99138C5.03022 2.95369 6.4375 2.37073 7.90488 2.37073C9.37227 2.37073 10.7795 2.95369 11.8171 3.99138C12.8547 5.02906 13.4377 6.43646 13.4377 7.90396Z" fill="#D6E1E2"/>
</svg>
